<svg width="48" height="48" viewBox="0 0 48 48" fill="none" xmlns="http://www.w3.org/2000/svg">
<rect width="48" height="48" rx="24" fill="#2D61F5"/>
<path d="M31.5099 17.85L25.5699 14.42C24.5999 13.86 23.3999 13.86 22.4199 14.42L16.4899 17.85C15.5199 18.41 14.9199 19.45 14.9199 20.58V27.42C14.9199 28.54 15.5199 29.58 16.4899 30.15L22.4299 33.58C23.3999 34.14 24.5999 34.14 25.5799 33.58L31.5199 30.15C32.4899 29.59 33.0899 28.55 33.0899 27.42V20.58C33.0799 19.45 32.4799 18.42 31.5099 17.85ZM23.9999 19.34C25.2899 19.34 26.3299 20.38 26.3299 21.67C26.3299 22.96 25.2899 24 23.9999 24C22.7099 24 21.6699 22.96 21.6699 21.67C21.6699 20.39 22.7099 19.34 23.9999 19.34ZM26.6799 28.66H21.3199C20.5099 28.66 20.0399 27.76 20.4899 27.09C21.1699 26.08 22.4899 25.4 23.9999 25.4C25.5099 25.4 26.8299 26.08 27.5099 27.09C27.9599 27.75 27.4799 28.66 26.6799 28.66Z" fill="white"/>
</svg>
