<svg width="56" height="56" viewBox="0 0 56 56" fill="none" xmlns="http://www.w3.org/2000/svg">
<circle cx="28" cy="28" r="28" fill="#D5D7DA"/>
<path d="M42.1673 16.7502H39.2507V13.8335C39.2507 13.1502 38.684 12.5835 38.0007 12.5835C37.3173 12.5835 36.7507 13.1502 36.7507 13.8335V16.7502H33.834C33.1507 16.7502 32.584 17.3168 32.584 18.0002C32.584 18.6835 33.1507 19.2502 33.834 19.2502H36.7507V22.1668C36.7507 22.8502 37.3173 23.4168 38.0007 23.4168C38.684 23.4168 39.2507 22.8502 39.2507 22.1668V19.2502H42.1673C42.8507 19.2502 43.4173 18.6835 43.4173 18.0002C43.4173 17.3168 42.8507 16.7502 42.1673 16.7502Z" fill="white"/>
<path opacity="0.4" d="M27.6507 31.6835L22.2007 37.1335C21.6007 36.6002 21.0173 36.0502 20.4507 35.4835C18.734 33.7502 17.184 31.9335 15.8007 30.0335C14.434 28.1335 13.334 26.2335 12.534 24.3502C11.734 22.4502 11.334 20.6335 11.334 18.9002C11.334 17.7668 11.534 16.6835 11.934 15.6835C12.334 14.6668 12.9673 13.7335 13.8507 12.9002C14.9173 11.8502 16.084 11.3335 17.3173 11.3335C17.784 11.3335 18.2507 11.4335 18.6673 11.6335C19.1007 11.8335 19.484 12.1335 19.784 12.5668L23.6507 18.0168C23.9507 18.4335 24.1673 18.8168 24.3173 19.1835C24.4673 19.5335 24.5507 19.8835 24.5507 20.2002C24.5507 20.6002 24.434 21.0002 24.2007 21.3835C23.984 21.7668 23.6673 22.1668 23.2673 22.5668L22.0007 23.8835C21.8173 24.0668 21.734 24.2835 21.734 24.5502C21.734 24.6835 21.7507 24.8002 21.784 24.9335C21.834 25.0668 21.884 25.1668 21.9173 25.2668C22.2173 25.8168 22.734 26.5335 23.4673 27.4002C24.2173 28.2668 25.0173 29.1502 25.884 30.0335C26.484 30.6168 27.0673 31.1835 27.6507 31.6835Z" fill="white"/>
<path d="M44.6167 38.5499C44.6167 39.0166 44.5333 39.4999 44.3667 39.9666C44.3167 40.0999 44.2667 40.2332 44.2 40.3666C43.9167 40.9666 43.55 41.5332 43.0667 42.0666C42.25 42.9666 41.35 43.6166 40.3333 44.0332C40.3167 44.0332 40.3 44.0499 40.2833 44.0499C39.3 44.4499 38.2333 44.6666 37.0833 44.6666C35.3833 44.6666 33.5667 44.2666 31.65 43.4499C29.7333 42.6332 27.8167 41.5332 25.9167 40.1499C25.2667 39.6666 24.6167 39.1832 24 38.6666L29.45 33.2166C29.9167 33.5666 30.3333 33.8332 30.6833 34.0166C30.7667 34.0499 30.8667 34.0999 30.9833 34.1499C31.1167 34.1999 31.25 34.2166 31.4 34.2166C31.6833 34.2166 31.9 34.1166 32.0833 33.9332L33.35 32.6832C33.7667 32.2666 34.1667 31.9499 34.55 31.7499C34.9333 31.5166 35.3167 31.3999 35.7333 31.3999C36.05 31.3999 36.3833 31.4666 36.75 31.6166C37.1167 31.7666 37.5 31.9832 37.9167 32.2666L43.4333 36.1832C43.8667 36.4832 44.1667 36.8332 44.35 37.2499C44.5167 37.6666 44.6167 38.0832 44.6167 38.5499Z" fill="white"/>
</svg>
