<svg width="48" height="48" viewBox="0 0 48 48" fill="none" xmlns="http://www.w3.org/2000/svg">
<rect width="48" height="48" rx="24" fill="#2D61F5"/>
<path d="M29.7098 14H28.7598C28.3698 14 28.0498 14.32 28.0498 14.71C28.0498 15.11 28.3698 15.43 28.7598 15.43H29.7098C31.4198 15.43 32.8098 16.82 32.8098 18.52V24.4C32.4498 24.21 32.0498 24.11 31.6198 24.11H27.8098C26.3698 24.11 25.1898 25.28 25.1898 26.73V28.29H22.8098V26.73C22.8098 25.28 21.6298 24.11 20.1898 24.11H16.3798C15.9498 24.11 15.5498 24.21 15.1898 24.4V18.52C15.1898 16.82 16.5798 15.43 18.2898 15.43H19.2398C19.6298 15.43 19.9498 15.11 19.9498 14.71C19.9498 14.32 19.6298 14 19.2398 14H18.2898C15.7898 14 13.7598 16.03 13.7598 18.52V26.73V31.38C13.7598 32.83 14.9398 34 16.3798 34H20.1898C21.6298 34 22.8098 32.83 22.8098 31.38V29.71H25.1898V31.38C25.1898 32.83 26.3698 34 27.8098 34H31.6198C33.0598 34 34.2398 32.83 34.2398 31.38V26.73V18.52C34.2398 16.03 32.2098 14 29.7098 14Z" fill="white"/>
</svg>
