<svg width="48" height="48" viewBox="0 0 48 48" fill="none" xmlns="http://www.w3.org/2000/svg">
<rect width="48" height="48" rx="24" fill="#2D61F5"/>
<path d="M21.93 24.75H15C14.45 24.75 14 25.2 14 25.75V28.19C14 31.4 16.6 34 19.81 34H21.51C22.28 34 22.75 33.18 22.38 32.5C21.59 31.03 21.28 29.26 21.67 27.4C21.81 26.72 22.05 26.08 22.37 25.48C22.54 25.15 22.31 24.75 21.93 24.75ZM18.75 30C18.75 30.41 18.41 30.75 18 30.75C17.59 30.75 17.25 30.41 17.25 30V28C17.25 27.59 17.59 27.25 18 27.25C18.41 27.25 18.75 27.59 18.75 28V30Z" fill="white"/>
<path d="M28.19 14H19.81C16.6 14 14 16.6 14 19.81V22.25C14 22.8 14.45 23.25 15 23.25H23.84C24.06 23.25 24.27 23.17 24.45 23.03C25.31 22.37 26.32 21.89 27.4 21.67C29.26 21.28 31.03 21.59 32.5 22.38C33.18 22.74 34 22.28 34 21.51V19.81C34 16.6 31.4 14 28.19 14ZM18.75 20.25C18.75 20.66 18.41 21 18 21C17.59 21 17.25 20.66 17.25 20.25V18.25C17.25 17.84 17.59 17.5 18 17.5C18.41 17.5 18.75 17.84 18.75 18.25V20.25ZM22.75 20.25C22.75 20.66 22.41 21 22 21C21.59 21 21.25 20.66 21.25 20.25V18.25C21.25 17.84 21.59 17.5 22 17.5C22.41 17.5 22.75 17.84 22.75 18.25V20.25ZM30 20H26C25.59 20 25.25 19.66 25.25 19.25C25.25 18.84 25.59 18.5 26 18.5H30C30.41 18.5 30.75 18.84 30.75 19.25C30.75 19.66 30.41 20 30 20Z" fill="white"/>
<path d="M29 23C25.69 23 23 25.69 23 29C23 32.31 25.69 35 29 35C32.31 35 35 32.31 35 29C35 25.69 32.31 23 29 23ZM31.93 30.2C31.77 30.59 31.54 30.94 31.24 31.24C30.64 31.84 29.85 32.17 29 32.17C28.32 32.17 27.68 31.95 27.14 31.55V31.69C27.14 32 26.89 32.26 26.57 32.26C26.25 32.25 26 32 26 31.68V30.24C26 29.93 26.25 29.67 26.57 29.67H28.01C28.32 29.67 28.58 29.92 28.58 30.24C28.58 30.53 28.37 30.75 28.09 30.79C28.85 31.16 29.82 31.04 30.43 30.43C30.62 30.24 30.77 30.01 30.87 29.76C30.99 29.47 31.32 29.33 31.61 29.45C31.91 29.57 32.05 29.91 31.93 30.2ZM32 27.76C32 28.07 31.75 28.33 31.43 28.33H29.99C29.68 28.33 29.42 28.08 29.42 27.76C29.42 27.47 29.63 27.25 29.91 27.21C29.15 26.84 28.18 26.96 27.56 27.57C27.39 27.74 27.26 27.93 27.16 28.14C27.06 28.35 26.86 28.47 26.65 28.47C26.57 28.47 26.49 28.45 26.41 28.42C26.13 28.29 26 27.95 26.14 27.66C26.3 27.33 26.51 27.03 26.76 26.77C27.36 26.17 28.15 25.84 29 25.84C29.68 25.84 30.32 26.06 30.86 26.46V26.33C30.86 26.02 31.11 25.76 31.43 25.76C31.75 25.76 32 26 32 26.32V27.76Z" fill="white"/>
</svg>
