<svg width="48" height="48" viewBox="0 0 48 48" fill="none" xmlns="http://www.w3.org/2000/svg">
<rect width="48" height="48" rx="24" fill="#2D61F5"/>
<path fill-rule="evenodd" clip-rule="evenodd" d="M19.33 14H28.669C32.07 14 33.99 15.929 34 19.33V28.67C34 32.07 32.07 34 28.669 34H19.33C15.929 34 14 32.07 14 28.67V19.33C14 15.929 15.929 14 19.33 14ZM24.049 29.86C24.48 29.86 24.839 29.54 24.879 29.11V18.92C24.919 18.61 24.77 18.299 24.5 18.13C24.219 17.96 23.879 17.96 23.61 18.13C23.339 18.299 23.19 18.61 23.219 18.92V29.11C23.27 29.54 23.629 29.86 24.049 29.86ZM28.65 29.86C29.07 29.86 29.429 29.54 29.48 29.11V25.83C29.509 25.509 29.36 25.21 29.089 25.04C28.82 24.87 28.48 24.87 28.2 25.04C27.929 25.21 27.78 25.509 27.82 25.83V29.11C27.86 29.54 28.219 29.86 28.65 29.86ZM20.219 29.11C20.179 29.54 19.82 29.86 19.389 29.86C18.959 29.86 18.599 29.54 18.56 29.11V22.2C18.53 21.889 18.679 21.58 18.95 21.41C19.219 21.24 19.56 21.24 19.83 21.41C20.099 21.58 20.25 21.889 20.219 22.2V29.11Z" fill="white"/>
</svg>
