<svg width="48" height="48" viewBox="0 0 48 48" fill="none" xmlns="http://www.w3.org/2000/svg">
<rect width="48" height="48" rx="24" fill="#2D61F5"/>
<path d="M28 18V16C28 15.4696 27.7893 14.9609 27.4142 14.5858C27.0391 14.2107 26.5304 14 26 14H22C21.4696 14 20.9609 14.2107 20.5858 14.5858C20.2107 14.9609 20 15.4696 20 16V18H28ZM17 32H31C31.5304 32 32.0391 31.7893 32.4142 31.4142C32.7893 31.0391 33 30.5304 33 30V20C33 19.4696 32.7893 18.9609 32.4142 18.5858C32.0391 18.2107 31.5304 18 31 18H17C16.4696 18 15.9609 18.2107 15.5858 18.5858C15.2107 18.9609 15 19.4696 15 20V30C15 30.5304 15.2107 31.0391 15.5858 31.4142C15.9609 31.7893 16.4696 32 17 32Z" fill="white"/>
<path d="M33 25.255C30.1405 26.4112 27.0844 27.0038 24 27C20.817 27 17.78 26.38 15 25.255M24 24H24.01M28 18V16C28 15.4696 27.7893 14.9609 27.4142 14.5858C27.0391 14.2107 26.5304 14 26 14H22C21.4696 14 20.9609 14.2107 20.5858 14.5858C20.2107 14.9609 20 15.4696 20 16V18H28ZM17 32H31C31.5304 32 32.0391 31.7893 32.4142 31.4142C32.7893 31.0391 33 30.5304 33 30V20C33 19.4696 32.7893 18.9609 32.4142 18.5858C32.0391 18.2107 31.5304 18 31 18H17C16.4696 18 15.9609 18.2107 15.5858 18.5858C15.2107 18.9609 15 19.4696 15 20V30C15 30.5304 15.2107 31.0391 15.5858 31.4142C15.9609 31.7893 16.4696 32 17 32Z" stroke="#2D61F5" stroke-width="1.5" stroke-linecap="round" stroke-linejoin="round"/>
</svg>
