<svg width="44" height="44" viewBox="0 0 44 44" fill="none" xmlns="http://www.w3.org/2000/svg">
<g id="open-folder">
<path id="Vector" d="M33.0001 9.62516H23.0561C22.5941 9.62516 22.1486 9.48766 21.7673 9.22916L18.2436 6.83116C17.404 6.25916 16.4231 5.9585 15.4093 5.9585H9.16862C6.38745 5.9585 4.12695 8.219 4.12695 11.0002V31.1668C4.12695 33.948 6.38745 36.2085 9.16862 36.2085H27.502C28.261 36.2085 28.877 35.5925 28.877 34.8335C28.877 34.0745 36.2103 17.2592 36.2103 16.5002V12.8335C36.2103 11.0643 34.7693 9.62516 33.0001 9.62516Z" fill="#FEC84B"/>
<path id="Vector_2" d="M38.746 16.3003C38.1355 15.5541 37.2299 15.1251 36.2637 15.1251H15.8385C13.4423 15.1251 11.3652 16.8301 10.894 19.1786L7.81768 34.564C7.73702 34.9691 7.84152 35.3871 8.10185 35.7061C8.36218 36.0251 8.75268 36.2085 9.16518 36.2085H31.8252C34.2195 36.2085 36.2985 34.5035 36.7697 32.1568L39.4079 18.9641C39.5985 18.0181 39.3547 17.0465 38.7442 16.3003H38.746Z" fill="#FEDF89"/>
</g>
</svg>
