<?xml version="1.0" standalone="no"?>
<!DOCTYPE svg PUBLIC "-//W3C//DTD SVG 1.1//EN" "http://www.w3.org/Graphics/SVG/1.1/DTD/svg11.dtd" >
<svg xmlns="http://www.w3.org/2000/svg">
<metadata>Generated by IcoMoon</metadata>
<defs>
<font id="icomoon" horiz-adv-x="1024">
<font-face units-per-em="1024" ascent="960" descent="-64" />
<missing-glyph horiz-adv-x="1024" />
<glyph unicode="&#x20;" horiz-adv-x="512" d="" />
<glyph unicode="&#xe900;" glyph-name="arrow-down" d="M179 637.2c-13.4-5.8-21-21-18-36.6 1.2-6.8 20-26.2 168.6-175 148.8-148.6 168.2-167.4 175-168.6 18.8-3.6 7.8-13.2 189.8 168.6 181.8 181.8 172.2 171 168.6 189.8-1.8 9.8-13.8 21.8-23.6 23.6-18.8 3.6-9.2 11.8-175-153.6l-152.4-152.4-151.6 151.4c-84.8 84.8-153.8 152.4-157 153.6-7.6 2.8-17 2.4-24.4-0.8z" />
<glyph unicode="&#xe901;" glyph-name="error-circle" d="M491.52 916.224c-70.907-3.318-136.784-21.798-195.453-52.245l2.621 1.237c-137.706-71.632-234.284-205.813-252.406-363.849l-0.202-2.167c-1.253-15.204-1.968-32.911-1.968-50.784s0.715-35.579 2.117-53.091l-0.149 2.307c23.023-205.046 175.287-368.782 372.474-408.833l3.014-0.511c25.551-5.328 54.913-8.379 84.988-8.379 2.522 0 5.038 0.021 7.55 0.064l-0.378-0.005c1.824-0.029 3.978-0.046 6.135-0.046 30.562 0 60.347 3.327 89.013 9.638l-2.731-0.505c196.331 41.22 345.726 201.044 370.833 399.608l0.239 2.312c1.773 17.098 2.784 36.943 2.784 57.024s-1.011 39.926-2.985 59.487l0.201-2.463c-17.745 140.010-94.889 259.079-204.96 332.818l-1.696 1.070c-57.013 38.053-125.046 64.332-198.359 73.738l-2.345 0.246c-19.547 2.209-42.206 3.47-65.158 3.47-4.634 0-9.256-0.051-13.865-0.154l0.687 0.012zM560.832 829.376c173.655-22.922 309.623-158.889 332.333-330.589l0.211-1.955c1.62-14.666 2.544-31.673 2.544-48.896s-0.924-34.229-2.725-50.973l0.181 2.077c-9.433-69.817-36.064-132.079-75.461-184.146l0.709 0.978c-22.426-27.619-46.851-52.024-73.574-73.708l-0.922-0.724c-35.964-27.324-78.066-48.881-123.658-62.285l-2.742-0.691c-39.296-11.264-56.832-13.568-105.728-13.568-37.504 0-46.336 0.576-64 3.776-67.317 12.264-126.692 39.898-176.458 79.169l0.842-0.641c-22.23 18.944-42.24 38.954-60.567 60.443l-0.617 0.741c-38.63 48.924-66.264 108.299-78.157 173.177l-0.371 2.439c-3.2 17.664-3.776 26.496-3.776 64 0 48.896 2.304 66.432 13.568 105.728 14.095 48.334 35.652 90.436 63.676 127.362l-0.7-0.962c22.406 27.621 46.811 52.026 73.514 73.71l0.918 0.722c50.539 38.193 111.948 64.719 178.805 74.435l2.123 0.253c15.192 1.615 32.82 2.537 50.662 2.537 17.386 0 34.567-0.875 51.503-2.583l-2.133 0.174zM502.976 659.52c-8.914-1.845-16.51-6.562-21.965-13.121l-0.051-0.063c-10.944-12.096-10.752-10.368-10.752-113.024 0-102.72-0.192-100.864 10.88-113.088 16.384-18.24 45.44-18.24 61.824 0 11.072 12.224 10.88 10.368 10.88 113.088 0 102.784 0.192 100.864-10.88 113.152-7.833 8.552-19.050 13.895-31.515 13.895-2.98 0-5.889-0.305-8.697-0.887l0.276 0.048zM502.976 318.144c-18.565-4.007-32.273-20.287-32.273-39.769 0-0.419 0.006-0.836 0.019-1.251l-0.001 0.061c0-23.936 17.664-41.216 42.24-41.216 22.336 0 41.728 19.2 41.728 41.344-0.922 16.497-10.452 30.574-24.138 37.896l-0.246 0.12c-5.437 2.309-11.761 3.65-18.399 3.65-3.158 0-6.244-0.304-9.233-0.883l0.304 0.049z" />
<glyph unicode="&#xe902;" glyph-name="success-circle" horiz-adv-x="1125" d="M529.194 954.182c-161.252-11.602-305.287-108.769-376.303-253.851-54.171-110.671-62.126-229.5-23.226-347.046 38.034-114.947 121.586-210.483 231.278-264.473 44.448-21.875 95.164-37.123 147.31-44.28 22.944-3.151 85.825-3.151 108.769 0 101.061 13.875 189.89 55.847 260.355 123.049 168.69 160.858 189.946 418.917 49.928 605.949-61.35 81.943-153.082 142.977-251.949 167.655-30.36 7.573-53 11.061-85.6 13.166-30.911 2.003-30.349 2.003-60.562-0.169zM769.958 635.775c18.871-8.575 26.579-31.913 16.294-49.332-5.503-9.317-262.594-253.412-272.722-258.937-10.949-5.975-18.229-6.403-28.728-1.699-8.62 3.86-136.226 124.377-144.058 136.046-7.652 11.41-8.361 21.605-2.352 33.882 5.93 12.119 14.404 18.117 27.333 19.355 4.917 0.473 12.052-0.169 15.866-1.429 6.268-2.071 32.25-25.825 107.059-97.865l9.475-9.126 118.053 112.775c75.067 71.714 120.798 114.058 125.569 116.275 9.486 4.422 18.556 4.434 28.211 0.056z" />
<glyph unicode="&#xe903;" glyph-name="split-screen" d="M192.128 787.541c-43.349-7.339-83.072-39.851-98.176-80.341-8.789-23.552-8.576-16.64-8.576-258.859-0.043-246.955-0.427-237.397 9.941-262.784 13.441-31.143 37.763-55.465 68.065-68.582l0.842-0.324c25.771-10.496 7.467-9.984 347.776-9.984 340.224 0 322.005-0.512 347.733 9.941 31.107 13.572 55.42 37.884 68.662 68.146l0.33 0.846c10.283 25.344 9.941 15.915 9.941 262.4 0 246.571 0.341 237.056-9.984 262.443-12.457 28.995-34.453 51.915-61.96 65.247l-0.76 0.332c-28.16 13.568 4.949 12.331-348.843 12.672-174.123 0.128-320.384-0.384-324.992-1.152zM597.333 448v-256h-195.115c-219.349 0-205.227-0.811-218.795 12.757-13.653 13.653-12.757-3.499-12.757 243.243 0 246.784-0.896 229.589 12.8 243.285 13.269 13.269-1.152 12.416 218.027 12.587l195.84 0.128v-256zM825.173 701.184c4.907-1.664 11.221-5.76 15.403-9.941 13.653-13.653 12.757 3.499 12.757-243.243s0.896-229.589-12.757-243.243c-12.459-12.501-14.464-12.757-90.795-12.757h-67.115v512h67.115c57.984 0 68.224-0.384 75.392-2.816z" />
<glyph unicode="&#xe904;" glyph-name="bell" d="M496.64 862.677c-24.576-2.944-45.013-12.885-64.341-31.232-18.517-17.579-28.16-33.792-34.603-58.325-1.579-6.101-3.157-7.595-14.379-13.995-30.592-17.408-69.931-52.907-92.757-83.669-27.008-36.437-47.232-79.019-57.045-119.936-7.765-32.555-8.576-42.453-9.813-124.587-1.365-86.869-1.237-85.973-12.459-108.373-11.563-23.083-27.136-40.405-50.944-56.789-15.275-10.539-20.736-18.731-20.736-31.019 0-15.573 9.173-27.179 24.32-30.677 4.736-1.067 41.941-1.749 97.408-1.792l89.771-0.043 1.92-21.205c4.224-45.653 23.936-84.309 56.832-111.531 88.064-72.704 221.696-32.555 254.805 76.544 4.192 15.44 6.978 33.344 7.749 51.768l0.017 0.499 0.043 3.797 188.587 0.981 7.68 4.523c9.585 5.552 15.93 15.76 15.93 27.45 0 5.192-1.251 10.091-3.469 14.413l0.083-0.178c-2.432 4.693-7.893 9.813-18.304 17.109-24.235 16.896-38.528 32.939-50.176 56.149-11.264 22.485-11.136 21.461-12.459 108.373-1.237 84.181-2.133 94.763-10.795 128-13.060 48.521-34.998 90.772-64.169 126.947l0.51-0.654c-22.272 27.52-57.771 58.283-85.419 74.027-10.965 6.272-12.544 7.808-14.123 13.867-6.571 24.96-16.213 41.003-35.669 59.307-25.515 24.021-58.368 34.56-93.995 30.251zM535.552 794.667c9.216-4.736 19.627-15.104 24.192-23.979 1.92-3.797 4.267-12.843 5.248-20.139 2.859-20.907 6.955-26.155 30.165-38.741 45.443-24.409 81.988-60.242 106.579-103.728l0.685-1.317c10.077-17.862 18.76-38.554 24.972-60.289l0.5-2.047c6.912-27.904 7.68-38.869 7.68-111.189 0-75.904 0.768-84.821 9.685-112.384 4.608-14.251 14.037-34.517 21.717-46.677l4.48-7.083h-518.912l4.48 7.083c7.68 12.16 17.109 32.427 21.717 46.677 8.917 27.563 9.685 36.48 9.685 112.384 0 85.845 1.877 100.651 17.579 140.757 22.4 57.301 67.925 109.013 119.808 136.149 8.448 4.437 17.493 9.515 20.096 11.349 6.827 4.736 11.349 14.805 13.184 29.483 2.901 22.869 14.933 38.656 35.328 46.251 9.728 3.584 31.829 2.261 41.131-2.56zM607.573 189.781c0-25.173-9.045-46.208-28.117-65.237-19.627-19.627-39.979-28.117-67.456-28.117-27.52 0-48.171 8.533-67.584 27.989-18.859 18.859-27.989 40.149-27.989 65.365v12.459h191.147v-12.459z" />
<glyph unicode="&#xe905;" glyph-name="clients" d="M493.227 904.363c-17.579-2.133-29.44-4.864-40.661-9.344-27.435-10.965-283.691-160.597-303.744-177.323-20.309-16.981-38.144-44.885-48.427-75.733-4.821-14.464-5.291-18.176-6.613-50.603-1.835-45.099-1.835-239.317 0-285.867 1.323-33.408 1.749-36.907 6.613-51.456 10.325-30.933 28.075-58.667 48.939-76.331 14.805-12.587 131.029-81.323 252.587-149.419 61.099-34.261 76.288-38.997 118.613-37.163 39.211 1.664 42.923 3.328 162.987 72.064 123.179 70.528 178.176 103.424 190.507 113.835 22.656 19.243 43.776 54.059 52.011 85.803l4.437 17.067 0.811 129.707c0.469 71.339 0.085 149.291-0.811 173.227-1.621 41.771-1.877 44.16-6.912 59.179-12.928 38.912-34.773 68.309-65.493 88.277-32.171 20.864-237.867 139.819-271.829 157.141-13.739 7.040-24.96 11.435-34.133 13.44-13.355 2.944-47.019 4.907-58.88 3.499zM545.28 836.821c11.221-3.925 55.893-29.099 213.291-120.107 60.715-35.072 65.707-38.315 78.549-51.115 9.856-9.813 15.232-16.896 19.285-25.259 11.989-24.96 11.435-15.275 11.435-192.341 0-145.579-0.256-160.512-2.944-170.155-6.812-24.246-20.984-44.546-39.916-58.893l-0.276-0.201c-7.339-5.376-111.232-65.963-222.933-130.005-57.643-33.067-60.16-34.005-89.771-34.005-20.565 0-24.235 0.469-34.133 4.309-11.136 4.309-64.768 34.645-203.051 114.731-70.144 40.619-74.965 43.691-87.893 56.619-9.899 9.856-15.275 16.896-19.328 25.259-12.032 24.96-11.435 15.275-11.435 192.341 0 145.579 0.256 160.512 2.944 170.155 8.533 30.848 25.941 51.584 60.203 71.68 113.579 66.56 245.333 141.696 255.616 145.749 13.739 5.461 21.077 6.528 40.491 5.973 13.781-0.384 20.693-1.493 29.867-4.736zM488.96 718.507c-61.131-11.372-106.798-64.293-106.798-127.882 0-0.342 0.001-0.683 0.004-1.024v0.052c0-36.565 12.971-67.371 39.168-92.971 21.376-20.907 45.269-32.341 73.984-35.499 44.715-4.864 81.92 8.491 111.403 39.979 14.549 15.531 21.803 27.435 28.672 47.104 4.48 12.8 5.333 18.005 5.973 36.395 0.597 17.877 0.128 23.936-2.859 35.84-9.837 39.074-35.985 70.659-70.598 87.632l-0.783 0.347c-20.736 9.984-54.827 14.336-78.165 10.027zM522.24 656.128c14.592-2.304 26.411-8.192 36.48-18.219 27.008-26.837 27.136-68.48 0.299-95.275-10.554-11.243-25.274-18.467-41.684-19.195l-0.13-0.005c-40.363-2.304-72.064 27.093-72.363 67.115-0.085 11.904 0.597 15.189 5.291 25.173 9.387 20.096 28.843 36.821 46.891 40.405 10.24 2.005 12.672 2.005 25.216 0zM481.28 417.365c-51.712-5.632-105.131-34.091-135.723-72.32-25.173-31.488-38.059-69.675-34.133-101.12 0.981-8.021 2.219-10.581 7.765-16.128 11.008-11.008 27.093-12.8 39.595-4.48 7.637 5.077 11.051 12.885 15.147 34.645 4.011 21.163 9.856 34.603 21.163 48.725 14.592 18.176 40.917 34.475 70.357 43.477 13.952 4.309 17.109 4.608 46.549 4.608s32.597-0.299 46.549-4.608c29.44-9.003 55.765-25.301 70.357-43.477 11.307-14.123 17.152-27.563 21.163-48.725 4.096-21.76 7.509-29.568 15.147-34.645 18.005-11.989 44.331-1.365 47.445 19.157 3.883 25.984-6.912 63.915-26.325 92.501-25.387 37.376-70.485 66.389-121.429 78.208-20.096 4.608-60.757 6.656-83.627 4.181z" />
<glyph unicode="&#xe906;" glyph-name="help" d="M463 957.8c-119.4-12.2-228.2-63.6-312.6-147.8-200.4-200-200.4-524 0-724 81.2-81 180.2-129.6 298.6-146.4 23.8-3.4 102.4-3.2 127 0.2 116 16 217.8 66 297.8 146.4 92.8 93.4 144.6 212.2 149.6 343.8 5.2 142.2-48.4 278.6-149.8 380-78.6 78.8-178.2 128.6-290.6 145.2-24.4 3.6-95.4 5.2-120 2.6zM586 882.2c92.8-16.8 171.8-58 237-123.2 83.8-83.8 129-192.8 129-311s-45.2-227.2-129-311c-83.8-83.8-192.8-129-311-129-118 0-227.4 45.4-311 129-66.2 66.2-107.2 146-124.4 242-5 28.6-5 109.4 0 138 17.2 96 58.2 175.8 124.4 242 71.4 71.4 157.8 113.2 262 127 24.6 3.2 96.8 1 123-3.8zM485.4 703.8c-34.4-2.8-65.6-16.2-86.8-37-30.2-29.6-34-67.4-8.4-83.2 20.2-12.6 36.2-9 50.8 11.2 17.2 24.2 29.6 31.4 56.6 32.8 42.4 2.4 68.4-16.8 66-48.4-1.8-22-10.2-33.4-44.6-61.2-35.2-28.4-47.4-45-55.2-75.6-5.2-20.8-5.2-56 0-67.8 5.4-11.8 13.2-15.4 33.4-15.4 29 0 38.8 9.2 38.8 36.8 0 34 9.2 50.8 42 78.2 52.4 43.2 76.2 88.2 70 132.2-9.4 65.4-75 104.8-162.6 97.4zM481 309.6c-35.8-13.2-46.4-58-20.4-85.2 20.4-21.4 51.6-21.2 72.4 0.2 31.6 32.6 11.2 84.6-34 86.8-6.6 0.2-14.6-0.6-18-1.8z" />
<glyph unicode="&#xe907;" glyph-name="home" d="M469.333 893.44c-20.011-5.333-41.515-16.725-64.853-34.261-25.429-19.115-220.331-174.976-268.459-214.656-18.987-15.659-37.931-32.853-43.221-39.253-11.435-13.781-26.283-43.307-32.384-64.256-9.643-33.28-8.832-42.24 19.797-213.973 25.216-151.339 35.243-207.317 39.296-219.605 7.211-21.845 27.392-51.2 46.336-67.456 31.872-27.392 58.752-38.059 102.955-40.832 14.080-0.896 132.437-1.621 263.083-1.664l237.44-0.043 14.805 4.309c33.963 9.813 56.704 22.613 78.635 44.331 21.632 21.333 35.797 43.307 42.496 65.707 6.997 23.467 44.373 240.597 59.947 348.16 5.248 36.096 4.992 52.779-1.109 76.715-8.192 32.256-21.973 57.984-41.643 77.781-14.165 14.293-62.165 53.376-197.12 160.64-118.955 94.549-125.141 99.2-142.507 107.349-23.936 11.264-32.981 13.056-69.12 13.781-27.477 0.555-33.237 0.171-44.373-2.773zM544 830.037c13.781-4.053 20.949-9.173 96-67.968 112.128-87.893 232.619-185.515 239.701-194.176 13.525-16.512 24.277-42.795 25.984-63.573 0.555-6.528-0.256-19.2-1.92-30.72-7.125-48.811-48.512-296.235-54.912-328.533-6.656-33.28-34.091-66.091-65.024-77.653-17.109-6.4-46.080-7.040-293.163-6.485l-233.813 0.512-12.8 4.907c-31.104 11.861-56.747 37.376-65.536 65.067-3.627 11.435-33.493 185.045-54.016 314.027-8.149 51.115-8.277 63.019-0.811 84.736 4.608 13.397 13.611 29.867 20.224 37.077 6.912 7.509 54.187 46.208 156.331 128 166.059 132.949 165.077 132.224 186.283 136.533 5.077 1.024 10.795 2.219 12.672 2.688 7.083 1.621 32.896-0.939 44.8-4.437zM497.493 347.52c-8.021-5.035-14.037-12.416-16.043-19.84-1.195-4.395-1.877-31.317-1.877-75.307v-68.523l5.547-8.192c6.699-9.856 15.957-15.019 26.88-15.019s20.181 5.163 26.88 15.019l5.547 8.192-0.043 72.789-0.043 72.747-5.163 6.827c-7.595 10.069-15.915 14.507-27.179 14.507-0.442 0.025-0.958 0.039-1.478 0.039-4.767 0-9.254-1.199-13.176-3.312l0.148 0.073z" />
<glyph unicode="&#xe908;" glyph-name="lookups" d="M206.507 905.472c-17.024-0.725-34.688-2.432-41.131-4.011-34.219-8.32-61.227-24.619-79.531-48-17.237-22.016-26.581-46.507-29.483-77.312-2.176-23.083-2.219-205.483-0.043-227.883 2.261-23.040 5.589-35.072 15.659-55.893 7.552-15.659 10.539-19.755 23.381-32.469 17.621-17.408 35.925-27.691 63.659-35.712l18.005-5.205 91.947 0.043c50.603 0.043 107.861 0.768 127.232 1.579 33.621 1.451 36.011 1.792 52.907 7.467 23.509 7.851 37.205 16.085 52.651 31.744 14.848 14.976 22.144 26.624 30.379 48.469 5.632 14.933 5.973 17.195 7.552 48.085 0.896 17.835 1.28 77.739 0.811 133.12l-0.768 100.693-4.565 15.232c-16.683 55.851-53.333 87.253-113.749 97.451-12.8 2.176-33.365 2.816-100.565 3.285-11.028 0.13-24.056 0.205-37.101 0.205-27.162 0-54.248-0.322-81.256-0.963l4.010 0.075zM624.555 901.547c-13.739-6.912-19.243-25.771-12.075-41.387 3.755-8.235 41.557-71.040 47.573-79.104 5.658-7.226 14.382-11.826 24.181-11.826 4.697 0 9.146 1.057 13.124 2.946l-0.186-0.079c18.901 8.704 23.125 26.709 11.605 49.152-3.499 6.784-5.888 12.757-5.376 13.269 1.493 1.536 27.691-7.211 46.336-15.403 42.667-18.731 90.112-59.904 114.987-99.84 10.795-17.237 20.181-36.907 26.88-56.107 9.216-26.453 11.776-39.765 15.573-81.195 2.304-24.789 12.629-36.693 31.872-36.693 9.344 0 17.621 4.267 24.149 12.416 4.267 5.333 5.291 8.405 5.888 17.365 0.896 14.037-2.304 46.592-6.699 68.352-28.245 140.245-150.656 249.259-292.181 260.267-31.488 2.475-37.035 2.219-45.653-2.133zM426.667 837.419c22.229-7.893 36.48-21.291 45.355-42.667 3.115-7.595 3.328-13.867 3.755-129.835 0.469-119.253 0.427-122.069-3.029-132.437-6.955-20.907-21.163-36.821-38.997-43.691-15.019-5.803-42.283-6.912-153.003-6.187-111.232 0.683-112.128 0.768-129.323 11.776-16.469 10.581-29.013 32-31.872 54.4-0.896 6.997-2.133 48.811-2.731 92.928-1.664 114.56 0.683 143.445 13.44 165.163 5.888 10.112 18.304 21.163 29.355 26.24 19.243 8.789 21.973 8.96 143.317 8.619l112.64-0.341 11.093-3.968zM287.573 768.512c-7.424-2.603-17.707-13.141-19.925-20.395l-1.877-6.315-31.744-0.555c-31.104-0.555-31.957-0.64-39.723-5.205-8.782-5.261-14.665-14.574-15.060-25.289l-0.002-0.055c0.759-9.065 4.586-17.114 10.424-23.225l-0.014 0.014c8.235-7.552 11.947-8.064 64.299-8.704l49.963-0.64-1.109-3.712c-5.589-18.517-28.032-44.928-46.336-54.571-12.757-6.699-33.835-13.141-42.923-13.141-22.443 0-38.101-17.707-32.853-37.248 2.688-10.069 9.301-18.773 16.597-21.803 7.637-3.2 30.080-3.029 46.421 0.299 18.637 4.286 35.091 11.051 50.045 20.054l-0.765-0.427 10.539 6.315 8.875-5.931c12.331-8.32 31.189-16.981 44.117-20.267 15.445-3.925 39.125-2.901 45.696 2.005 9.003 6.656 12.501 13.781 12.501 25.429 0 18.517-8.448 26.496-33.792 31.872-14.891 3.157-32.768 10.283-32.768 13.013 0 0.853 3.072 8.107 6.827 16.085 3.712 8.021 8.533 20.693 10.624 28.203l3.883 13.696 10.325 0.811c23.296 1.877 34.048 11.989 34.048 32 0 12.843-3.541 19.328-14.123 25.899-5.931 3.712-8.448 4.011-38.144 4.565l-31.787 0.597-2.005 6.699c-4.864 16.256-23.808 25.643-40.235 19.925zM692.907 483.584c-48.171-3.2-102.357-28.715-143.616-67.627-34.389-32.427-63.957-87.637-71.765-133.888-1.152-6.869-2.091-27.648-2.133-46.549-0.043-31.36 0.341-35.584 4.523-52.053 12.672-50.176 32.512-85.717 67.285-120.491 33.31-33.017 75.627-56.997 122.939-67.929l1.733-0.337c16.768-3.669 78.891-4.224 96.128-0.853 30.208 5.888 70.912 23.211 95.019 40.405 52.907 37.76 89.472 92.672 101.973 153.003 6.528 31.659 4.907 86.357-3.371 115.029-22.229 76.587-73.771 134.571-147.627 165.973-19.784 9.032-42.874 14.461-67.188 14.846l-0.14 0.002c-14.881 0.53-24.981 0.975-35.066 1.478l6.053-0.24c-0.938 0.011-2.047 0.017-3.157 0.017-7.598 0-15.129-0.285-22.583-0.845l0.993 0.060zM774.827 414.848c67.797-22.272 115.84-76.245 128.811-144.725 1.614-9.754 2.536-20.994 2.536-32.45 0-12.823-1.156-25.376-3.368-37.561l0.192 1.275c-15.015-69.469-66.884-123.882-133.678-142.324l-1.319-0.311c-13.83-3.837-29.711-6.042-46.107-6.042-16.454 0-32.389 2.221-47.523 6.379l1.256-0.294c-52.369 14.245-94.721 49.278-118.421 95.459l-0.491 1.053c-14.635 29.269-20.139 56.491-18.603 91.989 3.456 80.939 58.88 148.139 140.288 170.112 10.24 2.773 16.896 3.157 46.933 2.731 32.981-0.469 35.797-0.768 49.493-5.291zM710.571 374.443c-4.263-1.766-7.86-4.377-10.724-7.647l-0.028-0.033c-7.637-8.704-97.365-189.056-98.56-198.101-2.048-15.488 4.053-27.136 17.323-33.195 18.176-8.235 33.621-0.725 45.099 21.973l3.712 7.253h36.224c19.925 0 44.885-0.512 55.467-1.109l19.243-1.109 5.419-10.155c7.253-13.653 14.293-18.816 26.667-19.627 1.12-0.159 2.413-0.25 3.728-0.25 4.992 0 9.679 1.311 13.733 3.608l-0.139-0.072c14.251 7.381 19.627 20.864 14.635 36.779-2.773 8.661-87.168 178.987-94.805 191.275-6.272 10.069-22.485 14.635-36.992 10.411zM74.24 348.672c-7.635-3.163-13.683-8.879-17.194-16.061l-0.086-0.195c-3.072-7.168-2.987-33.451 0.171-57.301 10.24-77.013 52.949-155.307 112.128-205.525 57.216-48.597 136.107-78.805 206.080-78.933 19.755-0.043 27.733 3.157 34.688 13.909 2.969 4.858 4.726 10.736 4.726 17.024 0 5.181-1.193 10.083-3.319 14.446l0.086-0.196c-5.973 13.141-46.421 78.549-51.371 83.115-5.367 4.867-12.523 7.846-20.376 7.846-4.703 0-9.156-1.069-13.13-2.976l0.182 0.079c-18.901-8.704-23.125-26.709-11.605-49.152 3.499-6.784 5.931-12.715 5.419-13.227-1.28-1.323-16.597 3.456-36.48 11.349-60.885 24.149-112.299 73.088-141.483 134.613-14.507 30.592-20.992 55.723-24.875 96.299-2.901 30.763-5.888 37.333-19.669 43.691-3.933 1.875-8.547 2.971-13.417 2.971-3.753 0-7.355-0.651-10.698-1.845l0.222 0.069zM743.851 228.736c-0.555-0.555-10.709-0.768-22.571-0.512l-21.547 0.469 22.528 46.080 11.264-22.528c6.229-12.416 10.88-22.997 10.325-23.509z" />
<glyph unicode="&#xe909;" glyph-name="hide" d="M852 830c-2.8-1.2-29.4-26.6-59.4-56.4l-54.2-54.2-25.8 10c-41.6 16.6-81.2 27-127.6 34-36.8 5.4-114.2 4.8-152.8-1.2-101.8-15.6-191.8-56.2-277-124.8-27-21.6-78.2-73.2-100-100.4-23.6-29.8-52.8-73.6-54.4-82-2.2-12 0.8-20 17.2-44.6 48-72.6 116.8-141.8 186-187.4 11.6-7.6 21.4-14 21.8-14.4 0.6-0.4-20.8-22.6-47.2-49.2-41.4-41.4-48.4-49.4-49.6-56-2.2-12 0.6-21.4 8.8-29.6s17.6-11 29.6-8.8c6.8 1.2 45.4 39.2 366.2 359.6 263.4 263.4 359 360.2 360.6 365.2 4.4 13.4-0.4 27.8-12.6 36.8-6.2 4.6-22.2 6.4-29.6 3.4zM580 699c34.4-5.2 72.6-15.2 102.8-27l6-2.2-65.6-65.6-5.4 3.8c-10.4 7.6-43 22-58.8 26.4-21.2 5.6-68.8 6.2-89.8 1-36.6-9.2-65.6-25.6-92.4-52.2-26.6-26.8-43-56-52.2-92.4-5.4-21.6-4.8-66.8 1-88.8 4.6-16.6 17.8-46.8 26.2-59l4-6.2-81.2-81.2-19 11.8c-66.4 41.8-133.8 105.4-175.6 165.8l-10.2 14.8 10 14.6c35.4 51.2 97 112.8 149.2 149.6 70.4 49.6 153.6 81 236.2 89.6 24.8 2.6 89.6 1 114.8-2.8zM540.4 572.2c12.4-3.2 35.6-12.8 35.6-14.8 0-0.2-39-39.4-86.8-87.2l-86.8-86.8-5.4 10.4c-7.2 14.6-13 38.2-13 54 0.2 81.8 78.8 144.2 156.4 124.4zM827.4 628.4c-11.8-11.8-21.4-22.4-21.2-23.4 0-1.2 7.8-8 17.4-15.4 41-31.4 95-89 124.2-132l6.4-9.6-8.2-12c-34.4-50.8-94.2-111.4-147-149.2-90.4-64.8-196-97.8-301-94-32.8 1-43 2.2-76.6 8.4l-17.8 3.4-25.8-25.8c-18.6-18.6-25-26-23-27.2 5.6-3.2 53-13.8 80.2-18 37.4-5.8 113.6-6.2 150-1 129 19 236.6 74.6 335 173.2 35.2 35.4 58.2 63.2 84 101.8 25.8 38.4 25.8 41.8 2.4 77.6-22.4 34-53 71.4-85.4 104-27.4 27.6-65.6 60.8-69.8 60.8-1.2 0-12-9.6-23.8-21.6zM667.2 468.2l-27.6-27.6-2.6-15.8c-3.2-18.4-14.6-42.8-26.8-57.4-18.8-22.6-47.6-39.6-75-44.4l-15.8-2.6-28.2-28.2c-15.4-15.4-27.4-28.6-26.8-29.2 2.4-2.4 33-6.8 47.8-7 50.6-0.2 97.2 19.6 134.8 57 38.6 38.6 55.6 79.2 55.8 133 0.2 25-3.2 50-6.4 50-0.8 0-13.8-12.4-29.2-27.8z" />
<glyph unicode="&#xe90a;" glyph-name="show" d="M470 766.8c-118.4-11.2-219.4-52.6-314.8-129.4-27-21.6-78.2-73.2-100-100.4-23.6-29.8-52.8-73.6-54.4-82-0.6-3.8-0.6-10.2 0-14 1.6-8.4 30.8-52.2 54.4-82 21.8-27.2 73-78.8 100-100.4 86.8-69.8 178.4-110.4 283.8-126 33.6-4.8 112.4-4.8 146 0 69.6 10.2 132 30.8 190 62.8 89.2 49 170.2 124.2 229 212.2 26 39 26 41.8 0 80.8-25.6 38.4-48.6 66.4-84 101.8-96 96.6-204 153-328 172-26.2 4-99.2 6.6-122 4.6zM562.4 701c92.4-9.8 182.8-48.2 261.4-110.8 41.4-33.2 92.2-87 120-127l10.4-15.2-8.2-12c-34.4-50.8-94.2-111.4-147-149.2-98.2-70.4-216.2-103.6-330.2-92.8-115.4 11-220.6 62-313.6 152-25.4 24.6-58.2 62.6-75 87l-10.4 15 10 14.6c19.6 28.2 37.4 48.8 71 82.6 48.4 48.2 92.4 80.4 148.4 108.4 81.6 40.8 172.2 57.2 263.2 47.4zM478.6 637c-40.2-7.2-73-24.8-102.6-54.8-25.8-26-42.4-55.6-51.4-91.4-4.8-19-4.8-66.6 0-85.6 9-35.8 25.6-65.4 51.4-91.4 35.4-36 77-54.6 127-57.2 55.4-2.8 103.8 16.2 144 56.4 27.4 27.4 43.2 55.2 52.4 92.2 4.8 19 4.8 66.6 0 85.6-5 19.8-14.4 42-25 59.2-12.4 20.4-41.2 48.6-62.2 61.6-39.2 24-89 33.6-133.6 25.4zM539 573c43.2-9 81.8-44.6 95.6-88 6.2-19.8 6.2-54.2 0-74-12.6-39.8-45.8-73-85.6-85.6-11.4-3.6-18.6-4.4-38-4.4-20.8 0.2-26 1-38.6 5.4-21 7.6-35.2 16.6-51.4 32.6-49.4 49.2-49 129 1 179 31 31.2 74 44 117 35z" />
<glyph unicode="&#xe90b;" glyph-name="matters" d="M443.733 903.68c-60.971-3.712-105.515-29.653-121.344-70.699-7.509-19.499-9.941-32.64-11.008-59.861-0.512-13.141-1.323-27.136-1.792-31.147l-0.896-7.253h-15.872c-20.651 0-56.064-2.859-74.368-6.016-49.365-8.491-92.288-30.763-117.376-61.013-21.803-26.24-33.92-60.715-37.077-105.344-1.237-17.621-1.152-19.072 13.739-176.64 18.56-196.267 22.997-238.336 27.179-255.445 10.496-43.093 30.080-74.197 61.269-97.365 23.296-17.237 49.237-27.733 90.368-36.48 19.2-4.096 25.515-4.523 83.925-5.845 79.744-1.749 260.693-1.792 342.187-0.043 58.411 1.237 63.659 1.621 84.395 5.973 27.307 5.717 53.803 14.293 69.035 22.315 26.296 14.754 47.766 35.254 63.233 59.903l0.425 0.727c8.277 13.952 19.627 48.725 22.656 69.333 3.627 24.661 15.317 142.165 32.725 329.088 1.792 19.499 3.029 48.085 3.072 71.68 0.085 35.925-0.256 40.491-3.883 53.76-11.051 40.405-27.392 66.091-55.381 87.168-24.917 18.773-57.813 32.128-94.251 38.187-22.028 3.448-47.752 5.636-73.906 6.053l-0.462 0.006h-15.019l-0.896 7.253c-0.469 4.011-1.28 17.237-1.749 29.44-0.388 11.863-1.368 23.065-2.922 34.083l0.192-1.656c-9.899 54.784-43.221 85.461-105.771 97.323-17.024 3.2-121.899 4.864-160.427 2.517zM587.947 840.576c17.28-2.517 32.981-7.893 42.069-14.507 14.080-10.283 18.517-24.832 21.163-69.333l1.195-19.797-6.613-1.109c-8.619-1.408-258.901-1.408-267.52 0l-6.613 1.109 1.195 20.651c1.621 28.843 4.011 43.093 8.96 53.632 8.96 18.987 30.549 28.16 73.045 31.061 25.685 1.749 117.163 0.555 133.12-1.707zM805.461 664.235c21.077-5.589 45.269-16.683 57.387-26.325 10.368-8.277 19.669-21.803 25.856-37.547 4.224-10.837 4.565-13.696 5.205-46.208 0.427-19.029 0.256-37.248-0.341-40.448-0.981-5.12-3.328-7.339-18.56-17.536-61.611-41.173-147.371-76.629-225.195-93.056l-20.096-4.224-0.725 3.627c-0.703 5.772-1.269 12.944-1.561 20.185l-0.018 0.551c-1.067 21.419-4.565 31.744-13.995 41.173-13.099 13.099-15.744 13.44-101.419 13.44-85.845 0-88.32-0.341-101.547-13.568-9.813-9.813-12.971-20.053-14.080-45.952l-0.853-20.267-8.747 1.024c-12.373 1.493-65.237 14.933-86.613 22.101-35.74 12.222-65.273 24.708-93.784 38.936l4.397-1.987c-27.989 13.696-70.699 38.485-76.8 44.544-3.157 3.157-3.456 6.101-3.968 39.979-0.427 29.227 0 38.741 2.176 47.317 10.624 41.856 42.752 66.304 100.651 76.587 16.085 2.859 34.517 3.029 285.995 2.688l268.8-0.341 17.835-4.693zM884.565 420.267l-7.381-80.64c-10.667-116.949-16.939-176.128-20.352-193.109-9.131-45.184-36.139-70.997-88.405-84.523-18.859-4.907-22.784-5.291-66.133-6.613-59.648-1.835-320.939-1.835-380.587 0-43.349 1.323-47.275 1.707-66.133 6.613-53.163 13.739-79.317 39.125-89.088 86.357-3.925 19.029-28.16 271.317-26.24 273.237 0.512 0.512 14.293-5.888 30.592-14.208 59.132-30.879 127.701-55.244 199.892-69.546l4.908-0.811 19.797-3.669 2.944-13.909c7.851-36.821 29.568-58.965 67.541-68.864 16.171-4.224 76.373-4.224 92.16 0 38.101 10.24 59.477 31.829 67.413 68.181 1.92 8.704 3.925 13.781 5.888 14.848 1.664 0.896 11.008 3.243 20.736 5.248 73.941 15.189 149.845 42.581 209.749 75.733 10.795 5.973 20.437 10.965 21.419 11.051 1.024 0.085 1.579-2.261 1.28-5.376zM548.395 416.171l16.811-1.152-0.597-44.587c-0.64-50.048-1.024-51.712-12.971-56.704-10.496-4.395-37.419-6.485-56.576-4.395-19.371 2.091-27.179 5.163-31.445 12.373-3.712 6.315-6.144 33.451-6.187 68.565l-0.043 25.088 5.547 0.683c9.6 1.195 67.968 1.28 85.461 0.128z" />
<glyph unicode="&#xe90c;" glyph-name="search" d="M370.347 928.427c-156.708-19.405-283.235-129.828-326.025-276.013l-0.688-2.743c-11.548-40.050-13.71-57.060-13.71-106.951 0-48.071 1.252-58.994 11.15-97.678 34.702-135.339 143.929-244.338 279.097-278.528 38.116-9.614 50.631-11.036 97.109-11.093 33.223 0 46.421 0.626 59.733 2.958 60.132 10.581 108.203 29.582 157.525 62.293l14.222 9.444 128.284-128c102.059-101.831 130.105-128.853 136.875-132.096 7.168-3.413 11.15-4.096 24.747-4.096 19.115 0 27.932 3.413 39.993 15.417 12.004 12.060 15.417 20.878 15.417 39.993 0 13.596-0.683 17.579-4.096 24.747-3.243 6.77-30.265 34.816-132.096 136.875l-128 128.284 9.444 14.222c32.711 49.323 51.712 97.394 62.293 157.525 2.332 13.312 2.958 26.51 2.958 59.733-0.057 46.478-1.479 58.994-11.093 97.109-35.214 139.264-149.106 250.027-289.792 281.771-26.551 5.847-57.049 9.197-88.328 9.197-15.858 0-31.514-0.861-46.926-2.538l1.907 0.168zM464.839 813.113c55.068-8.932 104.562-34.873 146.204-76.572 37.179-36.36 63.835-83.336 75.063-136.023l0.314-1.761c3.243-14.564 3.755-21.959 3.812-56.036 0.057-37.148-0.228-40.334-4.779-59.62-16.816-72.279-60.006-132.394-118.643-170.928l-1.051-0.649c-42.13-27.282-93.63-43.501-148.919-43.501-7.293 0-14.521 0.282-21.672 0.836l0.948-0.059c-69.006 6.144-124.7 32.028-172.601 80.043-58.482 58.652-85.618 131.755-79.872 215.040 4.84 69.621 35.607 131.243 82.605 175.966l0.111 0.105c64.569 62.35 147.74 87.836 238.478 73.159z" />
<glyph unicode="&#xe90d;" glyph-name="task" d="M348.16 903.723c-30.251-0.939-47.36-2.304-61.867-4.907-72.107-12.971-118.784-35.243-156.587-74.752-38.528-40.32-59.435-89.387-71.168-166.997-2.816-18.816-3.072-35.755-3.072-209.067s0.256-190.251 3.072-209.067c11.733-77.696 33.024-127.531 71.509-167.381 35.712-36.992 80.597-59.179 146.816-72.576 34.987-7.083 67.072-8.192 235.136-8.192 167.936 0 200.149 1.109 235.051 8.192 114.389 23.125 177.195 78.080 205.909 180.267 9.941 35.371 13.269 57.6 14.763 98.944 1.92 50.944 1.92 290.859 0.043 340.48-1.237 32.256-2.304 42.581-6.741 64.469-13.397 66.219-35.584 111.104-72.576 146.859-39.979 38.571-92.8 60.971-168.235 71.211-16.341 2.219-45.739 2.773-174.933 3.243-85.419 0.299-174.123 0-197.12-0.725zM703.147 839.808c68.693-7.552 110.379-24.235 143.403-57.259 39.936-39.936 56.192-91.733 59.733-190.336 1.963-55.083 1.963-233.344 0-288.427-3.541-99.157-19.627-150.059-60.16-190.635-37.547-37.547-87.595-54.571-174.549-59.435-37.675-2.091-281.472-2.091-319.147 0-86.613 4.864-136.448 21.717-174.208 59.008-28.373 27.989-45.909 65.493-54.315 115.968-6.485 38.784-6.955 54.485-6.955 219.307 0 168.533 0.427 181.632 7.723 223.189 15.787 90.197 63.445 141.355 150.4 161.493 41.344 9.557 85.504 11.221 273.621 10.283 101.419-0.469 136.661-1.195 154.453-3.157zM393.387 675.456c-7.595-1.109-13.525-6.187-53.291-45.44l-36.181-35.755-7.083 6.4c-12.288 11.093-24.277 13.867-36.992 8.533-7.378-2.524-13.15-8.058-15.938-15.099l-0.062-0.176c-4.139-9.045-4.053-19.115 0.299-26.197 4.608-7.552 34.176-37.931 42.539-43.776 4.835-3.521 10.893-5.633 17.443-5.633 4.031 0 7.876 0.8 11.384 2.25l-0.198-0.073c6.827 2.517 16 10.923 58.581 53.76 27.776 27.947 51.755 53.504 53.333 56.832 3.285 6.869 3.797 21.845 0.939 27.392-6.485 12.587-19.84 19.115-34.773 16.981zM535.893 612.053c-20.267-1.152-23.851-2.219-30.208-9.045-5.412-5.533-8.751-13.113-8.751-21.473 0-10.552 5.32-19.861 13.424-25.392l0.106-0.068 7.253-4.821 242.133-0.981 7.339 4.309c9.468 5.301 15.764 15.269 15.764 26.708 0 12.029-6.962 22.432-17.077 27.399l-0.18 0.080c-6.997 3.627-8.363 3.712-108.629 4.053-55.851 0.171-110.379-0.171-121.173-0.768zM393.387 376.789c-7.595-1.109-13.525-6.187-53.291-45.44l-36.181-35.755-7.083 6.4c-12.288 11.093-24.277 13.867-36.992 8.533-7.378-2.524-13.15-8.058-15.938-15.099l-0.062-0.176c-7.68-16.725-3.328-26.069 24.875-53.547 18.389-17.835 25.643-22.443 35.456-22.357 13.013 0.085 19.157 5.035 70.613 57.003 27.307 27.605 50.901 52.864 52.48 56.107 3.243 6.869 3.712 21.845 0.896 27.349-6.485 12.587-19.84 19.115-34.773 16.981zM535.595 313.387c-21.931-1.195-25.899-2.816-33.365-13.781-3.314-4.813-5.293-10.769-5.293-17.186 0-11.162 5.986-20.926 14.924-26.256l0.14-0.077c5.845-3.413 8.448-3.499 127.147-3.968l121.173-0.512 6.912 4.48c21.589 14.037 20.821 42.453-1.536 54.016-6.997 3.627-8.363 3.712-108.629 4.053-55.851 0.171-110.507-0.171-121.472-0.768z" />
<glyph unicode="&#xe90e;" glyph-name="timesheet" d="M371.2 903.381c-19.029-10.539-23.808-34.901-9.685-49.792 9.6-10.155 1.792-9.643 150.485-9.643s140.885-0.512 150.485 9.643c5.184 5.488 8.371 12.91 8.371 21.077s-3.187 15.59-8.385 21.092l0.014-0.015c-9.6 10.155-1.749 9.643-150.827 9.6-96.853-0.043-138.027-0.597-140.459-1.963zM454.827 795.307c-57.856-9.173-117.888-31.829-163.84-61.867-93.44-61.056-159.403-161.963-178.261-272.64-7.083-41.557-6.016-103.68 2.517-145.237 24.793-118.368 98.074-216.051 197.638-273.037l1.999-1.054c54.485-30.677 128.597-50.859 186.88-50.859 19.072 0 25.557 1.92 32.725 9.6 11.264 12.032 11.008 32.171-0.512 42.795-6.613 6.059-14.933 8.576-32.213 9.813-56.021 3.883-96 13.995-139.093 35.115-57.216 28.376-103.965 70.35-137.257 121.838l-0.812 1.341c-13.52 21.657-25.837 46.643-35.615 72.867l-0.95 2.909c-10.93 32-17.24 68.865-17.24 107.204 0 121.873 63.76 228.854 159.743 289.404l1.412 0.831c51.188 32.321 113.477 51.501 180.245 51.501 45.527 0 88.972-8.918 128.682-25.102l-2.281 0.822c108.715-43.648 186.667-138.624 208.896-254.507 1.408-7.339 3.712-26.24 5.077-42.027 1.408-15.787 3.584-31.147 4.864-34.133 4.565-10.709 14.251-16.512 27.648-16.512 16 0 27.563 9.344 29.909 24.235 1.749 11.051-0.811 54.443-4.48 75.605-15.164 84.156-54.55 157.292-110.584 213.923l0.035-0.035c-30.916 31.788-67.164 58.19-107.335 77.802l-2.276 1.003c-32.086 16.603-69.307 29.392-108.526 36.421l-2.407 0.358c-21.461 4.011-102.741 5.077-124.587 1.621zM500.053 647.467c-6.901-3.557-12.477-8.846-16.283-15.302l-0.101-0.186c-2.005-3.84-2.389-23.979-2.389-119.979 0-125.397-0.427-119.637 9.643-129.152 5.142-5.101 12.223-8.254 20.041-8.254 0.364 0 0.727 0.007 1.088 0.020l-0.052-0.002c12.294 0.038 22.947 7.022 28.247 17.231l0.084 0.177c3.541 6.827 3.584 233.088 0 239.957-7.125 13.696-26.283 21.035-40.277 15.488zM674.133 318.208c-30.549-5.248-56.533-31.147-66.816-66.475-3.2-11.051-3.157-151.125 0.043-162.133 7.339-25.088 24.491-48.725 42.581-58.581 23.637-12.843 54.144-12.757 82.645 0.256 11.52 5.291 67.797 37.248 96.896 55.040 24.235 14.848 41.557 32.043 50.389 50.048 6.059 12.245 6.699 14.891 7.296 30.037 0.811 19.797-1.707 30.080-11.136 45.653-13.013 21.461-25.259 30.72-91.819 69.589-35.627 20.821-56.277 31.147-68.267 34.133-8.201 2.141-17.616 3.371-27.318 3.371-5.111 0-10.142-0.341-15.072-1.002l0.576 0.063zM706.048 252.672c12.245-5.675 74.539-41.771 94.805-54.912 9.941-6.443 18.005-13.013 20.053-16.384 6.315-10.368 3.499-20.821-8.064-29.952-8.192-6.443-59.349-37.163-88.491-53.12-32.768-17.92-43.392-18.133-51.925-1.024l-4.267 8.533v64c0 58.368 0.299 64.725 3.2 72.235 5.632 14.677 17.92 18.432 34.688 10.624z" />
<glyph unicode="&#xe90f;" glyph-name="users" d="M355.84 903.637c-79.957-8.747-153.173-68.053-180.181-145.963-8.277-23.893-10.837-41.173-10.88-74.155-0.085-32.683 1.749-44.288 11.392-71.68 18.688-52.992 58.624-98.389 107.947-122.709 33.408-16.469 62.507-23.083 101.589-23.168 29.44-0.043 41.472 1.792 67.541 10.24 35.352 11.578 65.434 31.034 89.331 56.385l0.098 0.105c45.653 47.787 65.877 106.667 60.032 175.061-6.229 73.429-52.949 141.099-120.576 174.592-32.725 16.213-50.517 20.352-93.867 21.888-3.244 0.13-7.053 0.204-10.88 0.204-7.583 0-15.098-0.291-22.534-0.862l0.987 0.061zM424.107 837.291c52.309-13.483 98.304-59.477 111.957-111.957 5.035-19.285 6.101-48.555 2.517-68.949-9.685-55.765-49.835-101.675-105.387-120.576-34.517-11.776-81.024-9.429-114.432 5.717-34.731 15.744-67.968 50.773-81.536 85.931-6.455 17.493-10.19 37.697-10.19 58.772 0 8.678 0.633 17.207 1.856 25.545l-0.114-0.947c9.941 63.232 61.568 116.309 125.355 128.981 16.853 3.328 52.224 2.048 69.973-2.517zM689.835 818.261c-8.149-2.56-18.389-13.483-19.84-21.205-2.645-13.995 3.499-28.544 14.379-34.176 2.688-1.408 13.227-3.712 23.339-5.12 28.203-3.968 44.416-10.283 64.683-25.216 17.792-13.099 31.787-33.237 39.424-56.704 5.675-17.536 6.443-48.085 1.621-65.707-8.619-31.317-32.853-61.013-60.8-74.539-16.768-8.107-23.936-10.027-47.147-12.587-30.336-3.371-38.955-10.368-38.955-31.616 0-10.624 0.597-12.971 4.608-18.219 3.451-4.029 7.599-7.346 12.274-9.791l0.227-0.108c7.296-3.499 9.557-3.712 27.776-2.816 40.69 1.664 77.424 17.349 105.789 42.317l-0.189-0.163c54.613 46.507 76.032 118.997 55.808 188.885-18.187 60.413-65.805 106.646-125.769 122.555l-1.25 0.282c-18.091 4.651-47.019 6.699-55.979 3.925zM367.787 428.203c-70.869-5.12-122.965-18.688-176.299-45.824-28.373-14.421-48.256-28.501-67.669-48-26.411-26.453-43.349-55.125-50.603-85.419-3.115-13.013-3.499-18.731-2.816-40.747 0.683-21.931 1.451-27.691 5.504-40.107 21.461-66.091 81.024-117.035 171.947-147.029 50.432-16.597 100.181-23.211 161.749-21.419 148.309 4.309 274.347 78.336 298.965 175.616 2.901 11.52 3.285 17.749 2.773 43.648-0.683 33.408-2.048 39.424-14.635 65.067-36.096 73.728-136.192 129.408-254.677 141.653-19.029 1.963-61.995 3.456-74.24 2.56zM772.267 391.509c-9.685-5.163-12.843-8.277-16.427-16.043-3.627-7.893-3.925-12.715-1.323-22.101 3.2-11.477 10.155-16.555 33.92-24.661 47.829-16.299 73.6-35.115 88.064-64.213 23.765-47.744-11.307-98.389-84.437-121.941-29.525-9.515-35.541-13.952-39.68-29.525-5.76-21.504 13.056-40.533 36.395-36.864 17.835 2.773 39.808 10.197 60.288 20.309 85.248 42.112 120.149 122.411 85.248 196.053-8.448 17.877-18.688 31.531-35.371 47.189-23.637 22.187-54.4 39.211-89.216 49.28-22.016 6.4-29.227 6.869-37.461 2.517zM457.344 360.192c60.117-10.411 108.501-30.635 146.603-61.312 21.547-17.365 39.296-44.16 44.629-67.371 2.56-11.221 0.981-32.427-3.541-47.061-14.805-47.957-73.045-89.899-154.027-110.933-36.352-9.429-55.211-11.648-98.475-11.605-53.973 0.085-88.192 5.504-132.267 20.907-65.408 22.869-111.957 62.72-124.672 106.624-9.088 31.403 1.195 66.56 27.776 94.805 36.992 39.296 94.208 65.109 171.989 77.568 21.248 3.371 99.072 2.347 121.984-1.621z" />
<glyph unicode="&#xe910;" glyph-name="setting" d="M300.373 852.139c-92.843-50.517-110.592-87.381-88.747-195.243 9.557-47.787 8.192-50.517-28.672-58.709-101.035-21.845-128.341-54.613-128.341-150.187s27.307-128.341 128.341-150.187c36.864-8.192 38.229-10.923 28.672-58.709-21.845-109.227-4.096-146.091 91.477-195.243 72.363-36.864 101.035-32.768 155.648 21.845 25.941 25.941 51.883 47.787 55.979 47.787 5.461 0 28.672-21.845 53.248-47.787 49.152-54.613 80.555-58.709 152.917-21.845 94.208 47.787 113.323 87.381 92.843 184.32-13.653 57.344 1.365 76.459 57.344 76.459 17.749 0 46.421 15.019 64.171 34.133 28.672 27.307 34.133 46.421 34.133 109.227s-5.461 81.92-34.133 109.227c-17.749 19.115-46.421 34.133-64.171 34.133-55.979 0-70.997 19.115-57.344 76.459 20.48 96.939 1.365 136.533-92.843 184.32-72.363 36.864-101.035 32.768-155.648-21.845-25.941-25.941-50.517-47.787-53.248-47.787s-27.307 21.845-53.248 47.787c-54.613 53.248-88.747 58.709-158.379 21.845zM431.445 775.68c58.709-64.171 103.765-64.171 162.475 1.365 50.517 54.613 68.267 54.613 136.533 0 38.229-30.037 39.595-35.499 27.307-84.651-8.192-30.037-12.288-66.901-9.557-84.651 5.461-32.768 64.171-70.997 110.592-70.997 32.768 0 55.979-38.229 55.979-88.747s-23.211-88.747-55.979-88.747c-46.421 0-105.131-38.229-110.592-70.997-2.731-17.749 1.365-54.613 8.192-81.92 15.019-57.344 5.461-75.093-66.901-114.688l-47.787-24.576-46.421 50.517c-61.44 66.901-105.131 66.901-166.571 0l-46.421-50.517-47.787 24.576c-73.728 39.595-81.92 55.979-65.536 120.149 8.192 30.037 10.923 66.901 8.192 80.555-8.192 30.037-69.632 66.901-111.957 66.901-32.768 0-55.979 38.229-55.979 88.747s23.211 88.747 55.979 88.747c43.691 0 103.765 36.864 111.957 69.632 4.096 15.019 1.365 43.691-5.461 62.805-21.845 58.709-13.653 83.285 38.229 120.149 28.672 19.115 57.344 34.133 64.171 34.133s32.768-21.845 57.344-47.787zM434.176 583.168c-103.765-55.979-101.035-217.088 2.731-271.701 77.824-40.96 173.397-13.653 211.627 61.44 72.363 140.629-75.093 286.72-214.357 210.261zM581.632 521.728c49.152-40.96 25.941-144.725-36.864-165.205-79.189-25.941-150.187 45.056-124.245 124.245 20.48 61.44 109.227 84.651 161.109 40.96z" />
<glyph unicode="&#xe911;" glyph-name="report" d="M282.6 948.8c-12.4-1.4-27.8-4.2-34-5.8-30.8-8.6-41.2-12.2-60-21-98.2-46-164.4-137.6-177.4-245-3.8-31.2-4-426-0.2-457.2 13.2-109.2 79.6-200.4 179.4-246.6 30.8-14.2 58.8-22 95.2-26.2 20.8-2.4 61.2-3 226.4-3 218 0 232.4 0.6 271.6 11 123.6 32.8 214 137.2 229.4 264.8 3.8 31.2 3.6 426-0.2 457.4-15.6 129-108 233.2-236 265.6-33.4 8.6-54 9.2-267.8 9-158.6-0.2-209-0.8-226.4-3zM738 870c31.6-4.6 69-19 96.6-37.4 8-5.4 22.6-17.6 32.6-27.6 27-26.8 46-57 57.6-92 11.6-34.4 11.4-30.4 10.8-273.2l-0.6-222.8-4.6-16c-9.2-32.4-18.2-51.8-35-77-12.6-18.8-42-48-60.8-60.6-27.4-18.2-62.8-32.2-95.2-37.4-16.8-2.6-438-2.6-454.8 0-33.8 5.6-73.8 22-100.8 41.4-17.2 12.4-44.8 40.6-56 57.6-16.6 24.8-25.6 45.6-34.2 77l-4.6 17v458l4.6 17c8.6 32 17.8 52.2 35 78 12.6 18.8 42 48 60.8 60.6 26.8 17.8 64.8 32.8 94.6 37.2 15.6 2.4 438 2.6 454 0.2zM494 697.6c-10-5.4-17-14.4-20-25.8-1.4-4.8-1.8-83.4-1.6-228.2l0.6-220.6 4.6-8.4c2.4-4.8 8.2-11 12.8-14 7-4.8 10.4-5.6 21.6-5.6s14.6 0.8 21.6 5.6c4.6 3 10.4 9.2 12.8 14l4.6 8.4v450l-4.6 8.4c-9.8 18.6-34 26-52.4 16.2zM268 567.6c-5.2-2.8-11.4-8.2-15-13.2l-6-8.8v-325.2l6-8.8c16.2-23.2 50.4-23.2 65.2 0l5.8 9.2v160.6c0 175.2 0.4 168.8-11.4 179.8-12.4 11.4-29.6 14-44.6 6.4zM722.2 443.6c-5-2.6-11.8-8-15-12.2l-6.2-7.8-0.6-101.4-0.6-101.2 6-9.2c14.8-23.4 49-23.6 65.2-0.2l6 8.8 1.2 194-5 10.6c-8.8 19.4-32.8 28.2-51 18.6z" />
<glyph unicode="&#xe912;" glyph-name="logout" d="M453.973 818.176c-154.624-17.365-273.835-117.589-311.296-261.675-10.197-39.168-12.075-56.064-12.075-108.501 0-52.395 1.877-69.333 12.032-108.331 39.808-153.173 172.971-257.109 337.109-263.211 14.677-0.555 28.672-0.512 31.147 0.128 5.589 1.408 15.872 10.283 19.115 16.597 2.944 5.675 3.243 20.693 0.555 25.984-3.835 6.471-9.008 11.767-15.169 15.632l-0.191 0.112c-2.517 1.323-12.629 2.773-23.040 3.371-38.955 2.133-67.797 6.869-95.36 15.659-112.043 35.755-183.296 121.387-201.472 242.005-3.84 25.429-3.84 78.677 0 104.107 18.176 120.619 89.429 206.251 201.472 242.005 27.563 8.789 56.405 13.525 95.403 15.659 19.669 1.109 22.912 2.048 30.635 9.216 5.943 4.981 9.696 12.407 9.696 20.71 0 0.595-0.019 1.185-0.057 1.77l0.004-0.080c0.002 0.137 0.003 0.299 0.003 0.461 0 4.622-0.878 9.039-2.476 13.093l0.084-0.242c-3.98 6.415-9.309 11.635-15.619 15.372l-0.211 0.116c-4.309 2.219-40.747 2.219-60.288 0.043zM731.307 582.997c-7.319-3.063-13.023-8.767-16.013-15.891l-0.072-0.195c-1.12-3.689-1.765-7.928-1.765-12.319 0-4.337 0.629-8.526 1.802-12.482l-0.079 0.31c0.981-2.645 15.36-18.475 32-35.115l30.165-30.293-183.424-0.043c-174.72-0.043-183.808-0.171-190.293-3.2-12.245-5.632-17.92-14.635-17.92-28.331s5.675-22.699 17.92-28.331c6.485-3.029 15.573-3.157 190.293-3.2l183.424-0.043-30.165-30.293c-16.64-16.64-31.019-32.469-32-35.115-2.304-6.187-2.304-18.389 0.043-24.491 2.56-6.869 8.192-12.459 16.085-16.085 3.716-1.904 8.106-3.020 12.758-3.020 4.685 0 9.105 1.132 13.002 3.137l-0.16-0.075c8.405 3.925 122.709 118.144 125.355 125.269 1.125 3.666 1.773 7.88 1.773 12.245s-0.648 8.579-1.852 12.551l0.080-0.306c-2.645 7.125-116.949 121.344-125.355 125.269-3.738 1.931-8.158 3.062-12.842 3.062-4.651 0-9.042-1.116-12.919-3.094l0.161 0.075z" />
<glyph unicode="&#xe913;" glyph-name="close" d="M483.84 830.976c-56.064-5.786-95.949-16.64-139.93-38.144-116.040-57.375-197.871-168.551-213.231-300.030l-0.171-1.794c-16.742-143.36 50.33-284.928 173.261-365.568 36.438-23.22 78.781-41.409 123.99-52.216l2.832-0.571c24.297-5.465 52.202-8.597 80.838-8.597 150.947 0 281.57 87.013 344.448 213.617l1.005 2.237c24.609 49.055 39.016 106.89 39.016 168.090s-14.407 119.035-40.015 170.298l0.999-2.209c-38.097 77.343-99.233 138.462-174.358 175.542l-2.23 0.995c-32.468 16.61-70.174 28.895-109.955 34.825l-2.020 0.247c-17.408 2.611-70.758 4.71-84.48 3.277zM405.453 622.234c6.656-2.97 18.79-14.080 57.446-52.685l49.050-48.896 49.971 49.613c55.859 55.552 56.627 56.064 78.95 56.064 28.314 0 49.254-20.941 49.408-49.459 0.102-22.272-0.41-23.040-56.013-78.95l-49.613-49.92 49.613-49.92c55.552-55.859 56.064-56.627 56.064-78.95 0-35.482-34.765-59.187-68.608-46.694-9.062 3.328-14.029 7.782-59.802 53.248l-49.92 49.664-49.92-49.664c-45.773-45.466-50.739-49.92-59.802-53.248-5.432-2.168-11.727-3.425-18.316-3.425-19.885 0-37.095 11.45-45.398 28.117l-0.133 0.294c-3.046 5.563-4.837 12.189-4.837 19.232 0 0.871 0.027 1.736 0.081 2.594l-0.006-0.117c0 22.323 0.512 23.091 56.064 78.95l49.613 49.971-48.896 49.050c-37.683 37.734-49.766 50.893-52.531 57.139-15.821 35.84 10.445 74.906 48.742 72.397 5.683-0.41 14.131-2.355 18.79-4.403z" />
<glyph unicode="&#xe914;" glyph-name="checks" horiz-adv-x="983" d="M683.213 664.105c-6.717-2.867-208.732-203.776-216.474-215.286-4.506-6.717-4.915-8.356-4.383-18.186 0.655-12.247 5.53-20.644 14.746-25.395 5.612-2.908 17.449-3.727 25.068-1.761 6.103 1.597 215.654 210.084 220.488 219.341 3.768 7.25 4.178 20.808 0.86 27.197-3.805 6.527-9.367 11.667-16.039 14.855l-0.222 0.095c-3.224 1.024-6.933 1.615-10.779 1.615-4.771 0-9.33-0.908-13.514-2.562l0.249 0.087zM888.013 664.146c-3.727-1.597-73.892-70.615-201.114-197.755l-195.379-195.297-92.979 92.897c-64.102 64.020-94.863 93.635-99.082 95.396-3.651 1.634-7.913 2.586-12.397 2.586-11.919 0-22.268-6.725-27.458-16.589l-0.081-0.17c-2.703-5.202-3.031-18.801-0.573-25.354 2.007-5.407 211.395-215.777 218.481-219.546 5.284-2.785 17.203-3.564 24.74-1.638 6.103 1.597 420.372 414.761 425.288 424.141 3.768 7.25 4.178 20.808 0.86 27.197-3.805 6.527-9.367 11.667-16.039 14.855l-0.222 0.095c-3.239 1.027-6.965 1.619-10.829 1.619-4.751 0-9.293-0.895-13.466-2.525l0.252 0.087zM70.451 460.083c-6.625-3.415-11.978-8.492-15.631-14.69l-0.097-0.179c-2.703-5.202-3.031-18.801-0.573-25.354 1.925-5.12 211.272-215.736 217.825-219.136 9.912-5.161 24.207-4.301 32.645 1.966 12.247 9.052 15.401 28.508 6.758 41.452-8.028 12.042-209.674 212.337-216.719 215.245-3.907 1.481-8.424 2.339-13.142 2.339-3.947 0-7.755-0.6-11.335-1.715l0.27 0.072z" />
</font>
</defs>
</svg>
