<svg width="370" height="521" viewBox="0 0 370 521" fill="none" xmlns="http://www.w3.org/2000/svg">
<path opacity="0.5" d="M266.81 181.892C225.177 157.576 190.742 180.332 184.65 232.739C183.593 241.851 190.49 253.833 198.847 258.716L334.724 338.057C343.08 342.94 349.977 339.013 348.971 328.693C342.879 269.137 308.444 206.158 266.81 181.892Z" fill="url(#paint0_linear_583_6858)"/>
<path opacity="0.5" d="M313.228 113.778C313.228 149.975 292.285 167.091 266.459 151.988C240.683 136.936 219.74 95.4025 219.74 59.2057C219.74 23.0089 240.683 5.8922 266.509 20.9952C292.335 36.0478 313.228 77.6313 313.228 113.778Z" fill="url(#paint1_linear_583_6858)"/>
<path opacity="0.07" d="M286.947 166.789C245.313 142.473 210.879 165.228 204.787 217.635C203.73 226.747 210.627 238.729 218.984 243.612L354.86 322.953C363.217 327.837 370.114 323.91 369.107 313.589C363.016 254.033 328.581 191.054 286.947 166.789Z" fill="url(#paint2_linear_583_6858)"/>
<path opacity="0.07" d="M333.364 98.6742C333.364 134.871 312.422 151.988 286.595 136.885C260.82 121.832 239.877 80.2989 239.877 44.1022C239.877 7.90538 260.82 -9.21132 286.646 5.89165C312.472 20.9443 333.364 62.5278 333.364 98.6742Z" fill="url(#paint3_linear_583_6858)"/>
<path opacity="0.2" d="M94.534 200.367L0.794922 146.248V195.081L94.5844 249.2L94.534 200.367Z" fill="url(#paint4_linear_583_6858)"/>
<path d="M19.8251 173.635C19.8251 177.663 17.459 179.526 14.4887 177.864C11.5688 176.153 9.15234 171.521 9.15234 167.494C9.15234 163.466 11.5185 161.603 14.4887 163.265C17.459 164.976 19.8251 169.608 19.8251 173.635Z" fill="#F2994A"/>
<path opacity="0.15" d="M24.6582 172.125L55.3172 189.795V196.642L24.6582 178.972V172.125Z" fill="white"/>
<path opacity="0.15" d="M24.8086 185.92L84.8681 220.606V227.453L24.8086 192.767V185.92Z" fill="white"/>
<path opacity="0.05" d="M242.543 249.604L336.735 303.974V506.807L242.543 452.487V249.604Z" fill="url(#paint5_linear_583_6858)"/>
<path opacity="0.3" d="M321.028 317.566L226.785 263.195V466.028L320.977 520.399L321.028 317.566ZM257.495 293.905L288.959 312.028V320.083L257.495 302.211V293.905Z" fill="url(#paint6_linear_583_6858)"/>
<path opacity="0.15" d="M235.898 391.722L311.564 435.369V442.216L235.898 398.568V391.722Z" fill="white"/>
<path opacity="0.15" d="M241.236 408.134L306.33 445.69V452.536L241.236 414.98V408.134Z" fill="white"/>
<path d="M294.951 374.656C294.951 358.596 285.537 340.12 273.958 333.425C262.379 326.729 252.965 334.331 252.965 350.391C252.965 366.45 262.379 384.926 273.958 391.622C285.537 398.317 294.951 390.715 294.951 374.656Z" fill="#F2994A"/>
<path opacity="0.05" d="M125.244 86.3389L219.436 140.71V343.542L125.244 289.172V86.3389Z" fill="url(#paint7_linear_583_6858)"/>
<path opacity="0.3" d="M203.731 154.455L109.488 100.084V302.917L203.68 357.288L203.731 154.455ZM140.198 130.793L171.662 148.917V156.972L140.198 139.1V130.793Z" fill="url(#paint8_linear_583_6858)"/>
<path opacity="0.15" d="M118.598 228.409L194.264 272.057V278.903L118.598 235.256V228.409Z" fill="white"/>
<path opacity="0.15" d="M123.884 244.872L188.928 282.428V289.275L123.834 251.719L123.884 244.872Z" fill="white"/>
<path d="M177.652 211.392C177.652 195.333 168.238 176.857 156.659 170.161C145.08 163.466 135.666 171.067 135.666 187.127C135.666 203.186 145.08 221.662 156.659 228.358C168.238 235.054 177.652 227.452 177.652 211.392Z" fill="#F2C94C"/>
<path opacity="0.3" d="M177.65 324.514L27.8281 238.024L27.8785 316.107L164.46 394.944L177.7 414.528L177.65 324.514Z" fill="url(#paint9_linear_583_6858)"/>
<path d="M11.8711 268.482V247.287L68.4065 279.91V301.104L11.8711 268.482Z" fill="#F2994A"/>
<path opacity="0.15" d="M139.14 321.291L106.316 302.362V309.209L139.14 328.138V321.291Z" fill="white"/>
<path opacity="0.15" d="M139.141 335.036L75.8594 298.537V305.384L139.141 341.883V335.036Z" fill="white"/>
<path opacity="0.15" d="M139.138 348.729L62.5156 304.478V311.324L139.188 355.576L139.138 348.729Z" fill="white"/>
<path d="M147.245 333.123C147.245 339.567 151.071 346.967 155.753 349.686C160.435 352.404 164.261 349.384 164.261 342.94C164.261 336.496 160.435 329.095 155.753 326.377C151.02 323.658 147.194 326.679 147.245 333.123Z" fill="#F2994A"/>
<path opacity="0.2" d="M60.2017 90.2157C63.2223 91.9274 65.6387 96.1563 65.6387 99.6299V114.985L75.8081 120.824C78.8287 122.536 81.2451 126.765 81.2451 130.239C81.2451 133.712 78.8287 135.122 75.8081 133.41L65.6387 127.57V142.925C65.6387 146.399 63.2223 147.808 60.2017 146.097C57.1811 144.385 54.7646 140.156 54.7646 136.683V121.328L44.5953 115.488C41.5747 113.776 39.1582 109.548 39.1582 106.074C39.1582 102.6 41.5747 101.191 44.5953 102.902L54.7646 108.742V93.3874C54.7646 89.9137 57.1811 88.5041 60.2017 90.2157Z" fill="url(#paint10_linear_583_6858)"/>
<defs>
<linearGradient id="paint0_linear_583_6858" x1="438.6" y1="142.231" x2="269.485" y2="265.595" gradientUnits="userSpaceOnUse">
<stop stop-color="white"/>
<stop offset="1" stop-color="white" stop-opacity="0"/>
</linearGradient>
<linearGradient id="paint1_linear_583_6858" x1="352.417" y1="23.8138" x2="183.303" y2="147.178" gradientUnits="userSpaceOnUse">
<stop stop-color="white"/>
<stop offset="1" stop-color="white" stop-opacity="0"/>
</linearGradient>
<linearGradient id="paint2_linear_583_6858" x1="458.737" y1="127.127" x2="289.622" y2="250.491" gradientUnits="userSpaceOnUse">
<stop stop-color="white"/>
<stop offset="1" stop-color="white" stop-opacity="0"/>
</linearGradient>
<linearGradient id="paint3_linear_583_6858" x1="372.554" y1="8.71032" x2="203.439" y2="132.074" gradientUnits="userSpaceOnUse">
<stop stop-color="white"/>
<stop offset="1" stop-color="white" stop-opacity="0"/>
</linearGradient>
<linearGradient id="paint4_linear_583_6858" x1="58.2441" y1="179.42" x2="37.0943" y2="216.063" gradientUnits="userSpaceOnUse">
<stop stop-color="white"/>
<stop offset="1" stop-color="white" stop-opacity="0"/>
</linearGradient>
<linearGradient id="paint5_linear_583_6858" x1="344.348" y1="283.479" x2="227.694" y2="485.584" gradientUnits="userSpaceOnUse">
<stop stop-color="white"/>
<stop offset="1" stop-color="white" stop-opacity="0"/>
</linearGradient>
<linearGradient id="paint6_linear_583_6858" x1="328.593" y1="297.045" x2="211.938" y2="499.15" gradientUnits="userSpaceOnUse">
<stop stop-color="white"/>
<stop offset="1" stop-color="white" stop-opacity="0"/>
</linearGradient>
<linearGradient id="paint7_linear_583_6858" x1="227.046" y1="120.205" x2="110.391" y2="322.31" gradientUnits="userSpaceOnUse">
<stop stop-color="white"/>
<stop offset="1" stop-color="white" stop-opacity="0"/>
</linearGradient>
<linearGradient id="paint8_linear_583_6858" x1="211.295" y1="133.934" x2="94.6407" y2="336.039" gradientUnits="userSpaceOnUse">
<stop stop-color="white"/>
<stop offset="1" stop-color="white" stop-opacity="0"/>
</linearGradient>
<linearGradient id="paint9_linear_583_6858" x1="144.977" y1="293.243" x2="67.6251" y2="353.808" gradientUnits="userSpaceOnUse">
<stop stop-color="white"/>
<stop offset="1" stop-color="white" stop-opacity="0"/>
</linearGradient>
<linearGradient id="paint10_linear_583_6858" x1="70.7124" y1="109.844" x2="44.3539" y2="130.646" gradientUnits="userSpaceOnUse">
<stop stop-color="white"/>
<stop offset="1" stop-color="white" stop-opacity="0"/>
</linearGradient>
</defs>
</svg>
