<svg width="498" height="521" viewBox="0 0 498 521" fill="none" xmlns="http://www.w3.org/2000/svg">
<path opacity="0.2" d="M276.342 123.847L397.392 55.2852L397.954 118.058L276.848 186.62L276.342 123.847Z" fill="url(#paint0_linear_569_7801)"/>
<path opacity="0.15" d="M366.539 87.9922L330.123 108.617L330.179 116.147L366.596 95.5227L366.539 87.9922Z" fill="white"/>
<path opacity="0.15" d="M366.653 103.109L289.1 147L289.156 154.643L366.709 110.752L366.653 103.109Z" fill="white"/>
<path d="M373.001 90.2405C373.057 95.4107 376.148 97.8834 379.969 95.6917C383.791 93.5561 386.825 87.5992 386.769 82.4289C386.713 77.2587 383.622 74.786 379.801 76.9777C375.979 79.1695 372.945 85.0702 373.001 90.2405Z" fill="#F2C94C"/>
<path opacity="0.2" d="M0.914062 405.062L122.021 336.557L122.583 399.33L1.41984 467.835L0.914062 405.062Z" fill="url(#paint1_linear_569_7801)"/>
<path opacity="0.15" d="M91.1702 369.208L54.7539 389.833L54.8101 397.363L91.2264 376.739L91.1702 369.208Z" fill="white"/>
<path opacity="0.15" d="M91.2271 384.325L13.6738 428.216L13.73 435.859L91.2833 391.968L91.2271 384.325Z" fill="white"/>
<path d="M97.575 371.511C97.6312 376.681 100.722 379.154 104.544 376.962C108.365 374.827 111.4 368.87 111.344 363.699C111.287 358.529 108.196 356.057 104.375 358.248C100.553 360.384 97.5188 366.285 97.575 371.511Z" fill="#F2C94C"/>
<path opacity="0.1" d="M142.142 3.18951C164.958 7.62915 216.267 13.3614 238.634 0.716797C238.465 90.184 216.548 217.135 144.895 321.832C72.1189 298.847 48.2348 197.803 46.5488 109.46C68.9156 96.7592 119.606 33.3116 142.142 3.18951Z" fill="url(#paint2_linear_569_7801)"/>
<path opacity="0.3" d="M170.015 21.7354C192.831 26.175 244.14 31.9072 266.507 19.2627C266.338 108.674 244.421 235.625 172.768 340.322C99.992 317.337 76.1078 216.349 74.4219 127.95C96.7887 115.249 147.479 51.8575 170.015 21.7354Z" fill="url(#paint3_linear_569_7801)"/>
<path opacity="0.4" d="M74.4219 127.949C96.8449 115.248 147.479 51.8565 170.015 21.7344L172.768 340.321C99.992 317.336 76.1078 216.348 74.4219 127.949Z" fill="url(#paint4_linear_569_7801)"/>
<path opacity="0.1" d="M290.166 189.935L178.051 253.382L180.355 520.716L292.414 457.268L290.166 189.935Z" fill="url(#paint5_linear_569_7801)"/>
<path opacity="0.2" d="M276.905 311.267L192.383 359.091L193.001 433.385L277.579 385.56L276.905 311.267Z" fill="url(#paint6_linear_569_7801)"/>
<path opacity="0.15" d="M274.823 261.812L235.766 283.898L235.822 291.541L274.879 269.455L274.823 261.812Z" fill="white"/>
<path opacity="0.15" d="M274.823 276.986L235.766 299.072L235.822 306.715L274.879 284.629L274.823 276.986Z" fill="white"/>
<path opacity="0.15" d="M275.107 291.598L200.926 333.578L200.982 341.22L275.163 299.241L275.107 291.598Z" fill="white"/>
<path opacity="0.2" d="M290.166 189.935L178.051 253.382L178.388 289.18L290.447 225.733L290.166 189.935Z" fill="url(#paint7_linear_569_7801)"/>
<path opacity="0.2" d="M262.292 223.935C262.348 229.33 265.551 231.915 269.485 229.723C273.419 227.475 276.566 221.293 276.51 215.898C276.454 210.503 273.25 207.918 269.317 210.11C265.383 212.358 262.236 218.54 262.292 223.935Z" fill="white"/>
<path d="M224.585 311.155L224.304 280.358L148.324 323.35L148.605 354.146L224.585 311.155Z" fill="#F2C94C"/>
<path opacity="0.3" d="M312.083 181.168L479.328 84.6201L479.272 171.783L326.751 259.789L311.971 281.65L312.083 181.168Z" fill="url(#paint8_linear_569_7801)"/>
<path d="M497.087 118.62V94.9609L433.977 131.377V155.037L497.087 118.62Z" fill="#F2994A"/>
<path opacity="0.15" d="M355.018 177.571L391.659 156.44V164.083L355.018 185.214V177.571Z" fill="white"/>
<path opacity="0.15" d="M355.018 192.858L425.658 152.114V159.757L355.018 200.501V192.858Z" fill="white"/>
<path opacity="0.15" d="M355.018 208.2L440.607 158.802V166.445L355.018 215.843V208.2Z" fill="white"/>
<path d="M346.026 190.78C346.026 197.973 341.755 206.234 336.529 209.269C331.302 212.303 327.031 208.931 327.031 201.738C327.031 194.545 331.302 186.284 336.529 183.249C341.755 180.214 346.026 183.586 346.026 190.78Z" fill="#F2994A"/>
<path opacity="0.2" d="M365.864 270.973C362.492 272.884 359.794 277.604 359.794 281.482V298.622L348.442 305.197C345.071 307.108 342.373 311.829 342.373 315.706C342.373 319.584 345.071 321.158 348.442 319.247L359.794 312.728V329.868C359.794 333.746 362.492 335.32 365.864 333.409C369.236 331.498 371.933 326.777 371.933 322.9V305.759L383.285 299.24C386.657 297.33 389.355 292.609 389.355 288.731C389.355 284.854 386.657 283.28 383.285 285.191L371.933 291.71V274.57C371.933 270.636 369.236 269.062 365.864 270.973Z" fill="url(#paint9_linear_569_7801)"/>
<defs>
<linearGradient id="paint0_linear_569_7801" x1="323.615" y1="97.0659" x2="350.651" y2="144.845" gradientUnits="userSpaceOnUse">
<stop stop-color="white"/>
<stop offset="1" stop-color="white" stop-opacity="0"/>
</linearGradient>
<linearGradient id="paint1_linear_569_7801" x1="48.1989" y1="378.286" x2="75.2353" y2="426.065" gradientUnits="userSpaceOnUse">
<stop stop-color="white"/>
<stop offset="1" stop-color="white" stop-opacity="0"/>
</linearGradient>
<linearGradient id="paint2_linear_569_7801" x1="289.244" y1="32.0748" x2="132.698" y2="172.183" gradientUnits="userSpaceOnUse">
<stop stop-color="white"/>
<stop offset="1" stop-color="white" stop-opacity="0"/>
</linearGradient>
<linearGradient id="paint3_linear_569_7801" x1="317.111" y1="50.6056" x2="160.566" y2="190.714" gradientUnits="userSpaceOnUse">
<stop stop-color="white"/>
<stop offset="1" stop-color="white" stop-opacity="0"/>
</linearGradient>
<linearGradient id="paint4_linear_569_7801" x1="66.2538" y1="160.903" x2="191.834" y2="184.938" gradientUnits="userSpaceOnUse">
<stop stop-color="white"/>
<stop offset="1" stop-color="white" stop-opacity="0"/>
</linearGradient>
<linearGradient id="paint5_linear_569_7801" x1="305.425" y1="285.673" x2="188.478" y2="401.812" gradientUnits="userSpaceOnUse">
<stop stop-color="white"/>
<stop offset="1" stop-color="white" stop-opacity="0"/>
</linearGradient>
<linearGradient id="paint6_linear_569_7801" x1="261.947" y1="313.031" x2="212.534" y2="421.642" gradientUnits="userSpaceOnUse">
<stop stop-color="white"/>
<stop offset="1" stop-color="white" stop-opacity="0"/>
</linearGradient>
<linearGradient id="paint7_linear_569_7801" x1="251.876" y1="190.291" x2="217.686" y2="286.014" gradientUnits="userSpaceOnUse">
<stop stop-color="white"/>
<stop offset="1" stop-color="white" stop-opacity="0"/>
</linearGradient>
<linearGradient id="paint8_linear_569_7801" x1="348.526" y1="146.256" x2="434.874" y2="213.864" gradientUnits="userSpaceOnUse">
<stop stop-color="white"/>
<stop offset="1" stop-color="white" stop-opacity="0"/>
</linearGradient>
<linearGradient id="paint9_linear_569_7801" x1="354.129" y1="292.894" x2="383.553" y2="316.114" gradientUnits="userSpaceOnUse">
<stop stop-color="white"/>
<stop offset="1" stop-color="white" stop-opacity="0"/>
</linearGradient>
</defs>
</svg>
