<svg width="40" height="40" viewBox="0 0 40 40" fill="none" xmlns="http://www.w3.org/2000/svg">
<circle cx="20" cy="20" r="20" fill="#D5D7DA"/>
<path opacity="0.4" d="M31.3492 15.725V24.275C31.3492 25.675 30.5992 26.9751 29.3867 27.6876L21.9617 31.975C20.7492 32.675 19.2492 32.675 18.0242 31.975L10.5992 27.6876C9.38672 26.9876 8.63672 25.6875 8.63672 24.275V15.725C8.63672 14.325 9.38672 13.025 10.5992 12.3125L18.0242 8.025C19.2367 7.325 20.7367 7.325 21.9617 8.025L29.3867 12.3125C30.5992 13.025 31.3492 14.3125 31.3492 15.725Z" fill="white"/>
<path d="M20.0004 19.9998C21.6089 19.9998 22.9129 18.6958 22.9129 17.0872C22.9129 15.4787 21.6089 14.1748 20.0004 14.1748C18.3919 14.1748 17.0879 15.4787 17.0879 17.0872C17.0879 18.6958 18.3919 19.9998 20.0004 19.9998Z" fill="white"/>
<path d="M23.3504 25.8249C24.3629 25.8249 24.9504 24.7 24.3879 23.8625C23.5379 22.6 21.8879 21.75 20.0004 21.75C18.1129 21.75 16.4629 22.6 15.6129 23.8625C15.0504 24.7 15.6379 25.8249 16.6504 25.8249H23.3504Z" fill="white"/>
</svg>
